<svg width="128" height="83" viewBox="0 0 128 83" fill="none" xmlns="http://www.w3.org/2000/svg">
<path d="M48.858 0.649993C56.458 0.649993 62.258 2.99999 66.258 7.7C70.358 12.3 72.408 18.8 72.408 27.2C72.408 36.1 70.208 44.8 65.808 53.3C61.508 61.8 55.658 68.75 48.258 74.15C40.958 79.45 33.108 82.1 24.708 82.1C17.008 82.1 10.958 79.8 6.55801 75.2C2.25801 70.6 0.108008 64 0.108008 55.4C0.108008 46.5 2.35801 37.8 6.85801 29.3C11.458 20.8 17.508 13.9 25.008 8.6C32.508 3.3 40.458 0.649993 48.858 0.649993ZM46.008 3.34999C40.608 3.34999 35.408 5.9 30.408 11C25.508 16 21.508 22.65 18.408 30.95C15.408 39.15 13.908 47.75 13.908 56.75C13.908 71.85 18.458 79.4 27.558 79.4C33.158 79.4 38.308 76.75 43.008 71.45C47.808 66.15 51.608 59.3 54.408 50.9C57.208 42.4 58.608 33.75 58.608 24.95C58.608 17.25 57.508 11.75 55.308 8.45C53.108 5.04999 50.008 3.34999 46.008 3.34999ZM104.122 80H91.0725L110.272 15.05C104.472 18.35 96.9725 21.4 87.7725 24.2L88.2225 21.05C96.5225 18.55 103.172 15.75 108.172 12.65C113.272 9.55 118.672 5.7 124.372 1.1H127.372L104.122 80Z" fill="#F3DFD8" fill-opacity="0.5"/>
</svg>
