<svg width="147" height="83" viewBox="0 0 147 83" fill="none" xmlns="http://www.w3.org/2000/svg">
<path d="M48.773 0.649993C56.373 0.649993 62.173 2.99999 66.1731 7.7C70.273 12.3 72.323 18.8 72.323 27.2C72.323 36.1 70.123 44.8 65.723 53.3C61.4231 61.8 55.5731 68.75 48.1731 74.15C40.873 79.45 33.023 82.1 24.623 82.1C16.923 82.1 10.873 79.8 6.47305 75.2C2.17305 70.6 0.0230471 64 0.0230471 55.4C0.0230471 46.5 2.27305 37.8 6.77305 29.3C11.373 20.8 17.423 13.9 24.923 8.6C32.423 3.3 40.373 0.649993 48.773 0.649993ZM45.923 3.34999C40.523 3.34999 35.323 5.9 30.323 11C25.423 16 21.423 22.65 18.323 30.95C15.323 39.15 13.823 47.75 13.823 56.75C13.823 71.85 18.373 79.4 27.473 79.4C33.073 79.4 38.223 76.75 42.923 71.45C47.723 66.15 51.523 59.3 54.323 50.9C57.1231 42.4 58.5231 33.75 58.5231 24.95C58.5231 17.25 57.4231 11.75 55.223 8.45C53.023 5.04999 49.923 3.34999 45.923 3.34999ZM125.788 0.8C131.988 0.8 136.888 2.1 140.488 4.69999C144.188 7.3 146.038 10.95 146.038 15.65C146.038 20.55 144.038 25.55 140.038 30.65C136.138 35.65 131.538 40.25 126.238 44.45C120.938 48.65 114.488 53.4 106.888 58.7C101.288 62.6 97.5375 65.35 95.6375 66.95C98.3375 66.95 103.488 67.65 111.088 69.05C118.888 70.45 124.338 71.15 127.438 71.15C134.338 71.15 137.788 68.75 137.788 63.95C137.788 60.25 135.588 57.4 131.188 55.4L133.138 53.45C138.638 56.05 141.388 60 141.388 65.3C141.388 69.6 139.788 73.3 136.588 76.4C133.488 79.4 128.838 80.9 122.638 80.9C120.538 80.9 118.488 80.7 116.488 80.3C114.488 80 112.038 79.5 109.138 78.8C106.038 78 103.238 77.4 100.738 77C98.3375 76.6 95.7875 76.4 93.0875 76.4C90.1875 76.4 87.5375 76.7 85.1375 77.3C82.8375 77.8 80.1375 78.7 77.0375 80L77.7875 76.85C78.8875 75.95 80.4875 74.8 82.5875 73.4C84.6875 71.9 86.3375 70.7 87.5375 69.8C96.1375 63.7 103.438 58.2 109.438 53.3C115.538 48.3 120.888 42.65 125.488 36.35C130.088 30.05 132.388 23.7 132.388 17.3C132.388 13.2 131.388 10 129.388 7.7C127.388 5.29999 124.538 4.09999 120.838 4.09999C117.238 4.09999 113.388 5.29999 109.288 7.7C105.288 10.1 101.938 13.2 99.2375 17C96.5375 20.7 95.1875 24.45 95.1875 28.25C95.1875 30.75 95.8375 32.6 97.1375 33.8C98.5375 34.9 100.788 35.45 103.888 35.45C106.488 35.45 108.788 35 110.788 34.1C112.888 33.1 115.188 31.5 117.688 29.3L119.488 31.4C116.888 33.9 114.138 35.75 111.238 36.95C108.338 38.05 105.538 38.6 102.838 38.6C99.7375 38.6 97.0875 37.85 94.8875 36.35C92.6875 34.85 91.5875 32.2 91.5875 28.4C91.5875 24 93.1375 19.65 96.2375 15.35C99.4375 11.05 103.638 7.54999 108.838 4.84999C114.138 2.15 119.788 0.8 125.788 0.8Z" fill="#F3DFD8" fill-opacity="0.5"/>
</svg>
